<?xml version="1.0" standalone="no"?>
<!DOCTYPE svg PUBLIC "-//W3C//DTD SVG 20010904//EN"
 "http://www.w3.org/TR/2001/REC-SVG-20010904/DTD/svg10.dtd">
<svg version="1.0" xmlns="http://www.w3.org/2000/svg"
 width="2048.000000pt" height="2048.000000pt" viewBox="0 0 2048.000000 2048.000000"
 preserveAspectRatio="xMidYMid meet">
<metadata>
Created by potrace 1.11, written by Peter Selinger 2001-2013
</metadata>
<g transform="translate(0.000000,2048.000000) scale(0.100000,-0.100000)"
fill="#000000" stroke="none">
<path d="M4910 19475 c-8 -2 -49 -9 -90 -15 -105 -17 -100 -16 -150 -35 -91
-35 -221 -104 -258 -138 -10 -9 -22 -17 -26 -17 -26 0 -260 -273 -247 -289 1
-2 -1 -7 -6 -10 -14 -10 -90 -180 -98 -221 -2 -8 -9 -44 -16 -80 -12 -54 -14
-1438 -14 -8425 0 -4598 3 -8378 7 -8400 17 -95 53 -205 97 -295 20 -41 38
-77 41 -80 3 -3 25 -32 50 -65 92 -124 220 -230 365 -303 59 -29 170 -70 210
-77 11 -2 43 -8 70 -14 68 -14 10680 -14 10779 0 148 22 332 98 452 189 191
144 309 324 377 575 l22 80 2 6834 3 6834 -199 196 c-468 461 -1160 1143
-1332 1313 -453 445 -1830 1801 -2188 2155 l-296 293 -3770 -1 c-2073 -1
-3777 -3 -3785 -4z"/>
</g>
</svg>
